<svg xmlns="http://www.w3.org/2000/svg" version="1.1" xmlns:xlink="http://www.w3.org/1999/xlink" xmlns:svgjs="http://svgjs.dev/svgjs" width="128" height="128" viewBox="0 0 128 128"><g transform="matrix(0.8046875,0,0,0.8046875,11.64115251194832,13.030762257530924)"><svg viewBox="0 0 97 96" data-background-color="#ffffff" preserveAspectRatio="xMidYMid meet" height="126" width="128" xmlns="http://www.w3.org/2000/svg" xmlns:xlink="http://www.w3.org/1999/xlink"><g id="tight-bounds" transform="matrix(1,0,0,1,0.837458904158126,0.4299720911592573)"><svg viewBox="0 0 95.47984031453956 95.481" height="95.481" width="95.47984031453956"><g><svg viewBox="0 0 95.47984031453956 95.481" height="95.481" width="95.47984031453956"><g><svg viewBox="0 0 95.47984031453956 95.481" height="95.481" width="95.47984031453956"><g id="textblocktransform"><svg viewBox="0 0 95.47984031453956 95.481" height="95.481" width="95.47984031453956" id="textblock"><g><svg viewBox="0 0 95.47984031453956 95.481" height="95.481" width="95.47984031453956"><g><svg viewBox="0 0 95.47984031453956 95.481" height="95.481" width="95.47984031453956"><g><svg xmlns="http://www.w3.org/2000/svg" viewBox="3.0007044517412376 3 57.999295548258765 58" x="0" y="0" height="95.481" width="95.47984031453956" class="icon-icon-0" data-fill-palette-color="accent" id="icon-0"><g data-name="19 Carpentry" fill="#bd804a" data-fill-palette-color="accent"><path d="M18 29A7 7 0 1 0 25 36 7.01 7.01 0 0 0 18 29M18 41A5 5 0 1 1 23 36 5.006 5.006 0 0 1 18 41" fill="#ffffff" data-fill-palette-color="accent"></path><path d="M18 33A3 3 0 1 0 21 36 3 3 0 0 0 18 33M18 37A1 1 0 1 1 19 36 1 1 0 0 1 18 37" fill="#ffffff" data-fill-palette-color="accent"></path><path d="M56 45H52.334A11.005 11.005 0 0 0 47.417 25.091 1 1 0 0 0 47 25H18A10.991 10.991 0 0 0 11.7 45H8A2 2 0 0 0 6 47V51A2 2 0 0 0 8 53H10V59H9A1 1 0 0 0 9 61H17A1 1 0 0 0 17 59H16V53H48V59H47A1 1 0 0 0 47 61H55A1 1 0 0 0 55 59H54V53H56A2 2 0 0 0 58 51V47A2 2 0 0 0 56 45M24.318 27H46.688A1 1 0 0 0 46.901 27.045 8.95 8.95 0 0 1 54.94 35H38A1 1 0 0 0 38 37H54.94A8.95 8.95 0 0 1 46.9 44.955 1 1 0 0 0 46.7 45H24.318C24.394 44.947 24.46 44.883 24.534 44.828 24.757 44.663 24.974 44.493 25.184 44.312A13 13 0 0 0 26.058 43.462C26.158 43.362 26.251 43.257 26.343 43.15 26.386 43.098 26.436 43.05 26.479 43H41A1 1 0 0 0 41 41H27.787C27.797 40.981 27.804 40.96 27.814 40.941 27.954 40.664 28.086 40.382 28.202 40.092 28.254 39.963 28.302 39.831 28.346 39.699A11 11 0 0 0 28.704 38.495C28.768 38.219 28.819 37.938 28.862 37.654 28.882 37.524 28.906 37.395 28.922 37.263A10.3 10.3 0 0 0 28.922 34.737C28.906 34.605 28.882 34.476 28.862 34.346A11 11 0 0 0 28.704 33.505 11 11 0 0 0 28.346 32.301C28.299 32.169 28.254 32.037 28.202 31.908A11 11 0 0 0 27.814 31.059C27.804 31.04 27.797 31.019 27.787 31H41A1 1 0 0 0 41 29H26.479C26.436 28.948 26.386 28.9 26.343 28.85 26.251 28.743 26.154 28.641 26.058 28.538A10 10 0 0 0 25.504 27.98C25.398 27.88 25.293 27.78 25.184 27.688 24.974 27.507 24.757 27.337 24.534 27.172 24.46 27.117 24.394 27.053 24.318 27M9 36A9 9 0 1 1 18 45 9.01 9.01 0 0 1 9 36M14 59H12V53H14ZM52 59H50V53H52ZM56 51H8V47H56Z" fill="#ffffff" data-fill-palette-color="accent"></path><path d="M53 15A3 3 0 0 0 56 12V10A3 3 0 0 0 50 10V12A3 3 0 0 0 53 15M52 10A1 1 0 0 1 54 10V12A1 1 0 0 1 52 12Z" fill="#ffffff" data-fill-palette-color="accent"></path><path d="M61 7.5V4A1 1 0 0 0 60 3H48A1.99 1.99 0 0 0 46.278 4H6.754A2.01 2.01 0 0 0 4.832 5.451L3.039 11.726A1 1 0 0 0 3.882 12.993L45.882 17.993A1 1 0 0 0 46 18 1 1 0 0 0 46.447 17.895L48.065 17.086 48.9 18.2A2.01 2.01 0 0 0 50.5 19H60A1 1 0 0 0 61 18V14.5A1.5 1.5 0 0 0 60 13.086V8.914A1.5 1.5 0 0 0 61 7.5M45.821 15.972L42 15.517V15A1 1 0 0 0 40 15V15.279L35 14.679V14A1 1 0 0 0 33 14V14.445L28 13.845V13A1 1 0 0 0 26 13V13.612L21 13.012V12A1 1 0 0 0 19 12V12.779L13 12.064V11A1 1 0 0 0 11 11V11.826L5.284 11.146 6.754 6H46V14A1 1 0 0 0 46.2 14.6L46.845 15.459ZM59 7.086A1.5 1.5 0 0 0 58 8.5V13.5A1.5 1.5 0 0 0 59 14.914V17H50.5L48 13.667V5H59Z" fill="#ffffff" data-fill-palette-color="accent"></path><path d="M45 31H47A1 1 0 0 0 47 29H45A1 1 0 0 0 45 31" fill="#ffffff" data-fill-palette-color="accent"></path><path d="M45 43H47A1 1 0 0 0 47 41H45A1 1 0 0 0 45 43" fill="#ffffff" data-fill-palette-color="accent"></path><path d="M34 35H32A1 1 0 0 0 32 37H34A1 1 0 0 0 34 35" fill="#ffffff" data-fill-palette-color="accent"></path></g></svg></g></svg></g></svg></g></svg></g></svg></g><g></g></svg></g><defs></defs></svg><rect width="95.47984031453956" height="95.481" fill="none" stroke="none" visibility="hidden"></rect></g></svg></g></svg>