<svg xmlns="http://www.w3.org/2000/svg" version="1.1" xmlns:xlink="http://www.w3.org/1999/xlink" xmlns:svgjs="http://svgjs.dev/svgjs" width="1500" height="1500" viewBox="0 0 1500 1500"><rect width="1500" height="1500" fill="#ffffff"></rect><g transform="matrix(0.6666666666666666,0,0,0.6666666666666666,250,246.54804270462648)"><svg viewBox="0 0 280 281" data-background-color="#ffffff" preserveAspectRatio="xMidYMid meet" height="1505" width="1500" xmlns="http://www.w3.org/2000/svg" xmlns:xlink="http://www.w3.org/1999/xlink"><g id="tight-bounds" transform="matrix(1,0,0,1,0,0.4999999999999716)"><svg viewBox="0 0 280 280" height="280" width="280"><g><svg viewBox="0 0 280 280" height="280" width="280"><g><svg viewBox="0 0 280 280" height="280" width="280"><g id="textblocktransform"><svg viewBox="0 0 280 280" height="280" width="280" id="textblock"><g><svg viewBox="0 0 280 280" height="280" width="280"><g transform="matrix(1,0,0,1,57.50420886156945,57.50420886156945)"><svg viewBox="0 0 164.9915822768611 164.9915822768611" height="164.9915822768611" width="164.9915822768611"><g id="icon-0"><circle r="82" cx="82.49579113843055" cy="82.49579113843055" fill="#000000" data-fill-palette-color="accent"></circle><svg xmlns="http://www.w3.org/2000/svg" viewBox="3.0007044517412376 3 57.999295548258765 58" x="24.74873734152917" y="24.748737341529164" height="115.49410759380275" width="115.49410759380275" class="icon-jxe-0" data-fill-palette-color="quaternary" id="jxe-0"><g data-name="19 Carpentry" fill="#ffffff" data-fill-palette-color="quaternary"><path d="M18 29A7 7 0 1 0 25 36 7.01 7.01 0 0 0 18 29M18 41A5 5 0 1 1 23 36 5.006 5.006 0 0 1 18 41" fill="#ffffff" data-fill-palette-color="quaternary"></path><path d="M18 33A3 3 0 1 0 21 36 3 3 0 0 0 18 33M18 37A1 1 0 1 1 19 36 1 1 0 0 1 18 37" fill="#ffffff" data-fill-palette-color="quaternary"></path><path d="M56 45H52.334A11.005 11.005 0 0 0 47.417 25.091 1 1 0 0 0 47 25H18A10.991 10.991 0 0 0 11.7 45H8A2 2 0 0 0 6 47V51A2 2 0 0 0 8 53H10V59H9A1 1 0 0 0 9 61H17A1 1 0 0 0 17 59H16V53H48V59H47A1 1 0 0 0 47 61H55A1 1 0 0 0 55 59H54V53H56A2 2 0 0 0 58 51V47A2 2 0 0 0 56 45M24.318 27H46.688A1 1 0 0 0 46.901 27.045 8.95 8.95 0 0 1 54.94 35H38A1 1 0 0 0 38 37H54.94A8.95 8.95 0 0 1 46.9 44.955 1 1 0 0 0 46.7 45H24.318C24.394 44.947 24.46 44.883 24.534 44.828 24.757 44.663 24.974 44.493 25.184 44.312A13 13 0 0 0 26.058 43.462C26.158 43.362 26.251 43.257 26.343 43.15 26.386 43.098 26.436 43.05 26.479 43H41A1 1 0 0 0 41 41H27.787C27.797 40.981 27.804 40.96 27.814 40.941 27.954 40.664 28.086 40.382 28.202 40.092 28.254 39.963 28.302 39.831 28.346 39.699A11 11 0 0 0 28.704 38.495C28.768 38.219 28.819 37.938 28.862 37.654 28.882 37.524 28.906 37.395 28.922 37.263A10.3 10.3 0 0 0 28.922 34.737C28.906 34.605 28.882 34.476 28.862 34.346A11 11 0 0 0 28.704 33.505 11 11 0 0 0 28.346 32.301C28.299 32.169 28.254 32.037 28.202 31.908A11 11 0 0 0 27.814 31.059C27.804 31.04 27.797 31.019 27.787 31H41A1 1 0 0 0 41 29H26.479C26.436 28.948 26.386 28.9 26.343 28.85 26.251 28.743 26.154 28.641 26.058 28.538A10 10 0 0 0 25.504 27.98C25.398 27.88 25.293 27.78 25.184 27.688 24.974 27.507 24.757 27.337 24.534 27.172 24.46 27.117 24.394 27.053 24.318 27M9 36A9 9 0 1 1 18 45 9.01 9.01 0 0 1 9 36M14 59H12V53H14ZM52 59H50V53H52ZM56 51H8V47H56Z" fill="#ffffff" data-fill-palette-color="quaternary"></path><path d="M53 15A3 3 0 0 0 56 12V10A3 3 0 0 0 50 10V12A3 3 0 0 0 53 15M52 10A1 1 0 0 1 54 10V12A1 1 0 0 1 52 12Z" fill="#ffffff" data-fill-palette-color="quaternary"></path><path d="M61 7.5V4A1 1 0 0 0 60 3H48A1.99 1.99 0 0 0 46.278 4H6.754A2.01 2.01 0 0 0 4.832 5.451L3.039 11.726A1 1 0 0 0 3.882 12.993L45.882 17.993A1 1 0 0 0 46 18 1 1 0 0 0 46.447 17.895L48.065 17.086 48.9 18.2A2.01 2.01 0 0 0 50.5 19H60A1 1 0 0 0 61 18V14.5A1.5 1.5 0 0 0 60 13.086V8.914A1.5 1.5 0 0 0 61 7.5M45.821 15.972L42 15.517V15A1 1 0 0 0 40 15V15.279L35 14.679V14A1 1 0 0 0 33 14V14.445L28 13.845V13A1 1 0 0 0 26 13V13.612L21 13.012V12A1 1 0 0 0 19 12V12.779L13 12.064V11A1 1 0 0 0 11 11V11.826L5.284 11.146 6.754 6H46V14A1 1 0 0 0 46.2 14.6L46.845 15.459ZM59 7.086A1.5 1.5 0 0 0 58 8.5V13.5A1.5 1.5 0 0 0 59 14.914V17H50.5L48 13.667V5H59Z" fill="#ffffff" data-fill-palette-color="quaternary"></path><path d="M45 31H47A1 1 0 0 0 47 29H45A1 1 0 0 0 45 31" fill="#ffffff" data-fill-palette-color="quaternary"></path><path d="M45 43H47A1 1 0 0 0 47 41H45A1 1 0 0 0 45 43" fill="#ffffff" data-fill-palette-color="quaternary"></path><path d="M34 35H32A1 1 0 0 0 32 37H34A1 1 0 0 0 34 35" fill="#ffffff" data-fill-palette-color="quaternary"></path></g></svg></g></svg></g><g id="text-0"><path d="M6.296 86.588l30.274 0.862-1.262 3.449-2.93-0.351-5.179-0.179-2.342 6.014-1.877 5.519 3.858 3.28 2.618 1.711-1.234 3.373-23.357-19.766zM22.313 95.125l1.686-4.878-14.9-0.481-0.105 0.289 11.509 9.75z" fill="#000000" data-fill-palette-color="primary"></path><path d="M45.107 58.387c3.316 0.219 6.713 0.258 10.189 0.118v0l0.335 0.305c-0.448 1.239-0.891 2.199-1.329 2.879v0l-0.633 0.242c-4.114-0.265-7.309-0.525-9.585-0.781v0l-2.505 3.38 0.9 0.681 5.621 4.149-1.999 2.643-5.279-4.16-12.517-9.302 4.558-6.11c1.424-1.882 2.959-2.993 4.606-3.334 1.651-0.346 3.309 0.11 4.972 1.369v0c1.216 0.92 2.054 2.069 2.514 3.445 0.459 1.377 0.51 2.869 0.152 4.476zM32.448 57.52l6.946 5.306 2.651-3.282c1.001-2.57 0.503-4.611-1.493-6.121v0c-1.053-0.796-2.074-1.084-3.064-0.865-0.994 0.226-1.992 0.95-2.995 2.173v0z" fill="#000000" data-fill-palette-color="primary"></path><path d="M67.212 21.268l0.299 0.111 1.491 2.406-3.543 2.213-1.801 1.326 7.337 10.192 4.249 5.548-2.71 1.995-3.876-5.491-7.677-10.273-1.802 1.326-3.24 2.78-0.403-0.098-1.428-2.389z" fill="#000000" data-fill-palette-color="primary"></path><path d="M96.358 7.603l15.212 18.11-3.148 1.188-1.354-2.077-2.264-2.687-4.997 1.841-4.429 1.716-0.025 3.364 0.322 2.653-3.101 1.17 0.175-23.916zM99.122 21.408l3.841-1.505-7.216-8.571-0.249 0.094-0.089 11.328z" fill="#000000" data-fill-palette-color="primary"></path><path d="M184.114 5.577l-12.092 20.526-3.526-0.623-2.206-12.766-0.263-0.046-6.665 11.2-3.536-0.624-3.315-23.244 3.314 0.585-0.018 2.403 2.566 16.924 0.222 0.039 7.076-11.992-0.844-5.785 3.445 0.608 0.027 2.682 2.612 16.661 0.263 0.046 8.738-14.741 0.979-2.421z" fill="#000000" data-fill-palette-color="primary"></path><path d="M214.984 19.666c2.816 1.633 4.502 3.717 5.055 6.252 0.554 2.535-0.046 5.314-1.799 8.338v0c-1.901 3.278-4.183 5.346-6.847 6.205-2.658 0.862-5.484 0.425-8.479-1.312v0c-2.793-1.62-4.46-3.721-5.001-6.304-0.539-2.574 0.097-5.423 1.908-8.547v0c1.86-3.207 4.109-5.211 6.749-6.013 2.639-0.802 5.444-0.342 8.414 1.381zM213.297 21.961c-2.041-1.184-3.898-1.486-5.57-0.906-1.67 0.589-3.231 2.135-4.682 4.638v0c-1.561 2.692-2.202 4.929-1.924 6.712 0.279 1.782 1.427 3.259 3.445 4.429v0c2.065 1.197 3.948 1.495 5.649 0.892 1.692-0.6 3.274-2.169 4.746-4.707v0c1.513-2.609 2.124-4.809 1.834-6.598-0.291-1.789-1.457-3.276-3.498-4.46z" fill="#000000" data-fill-palette-color="primary"></path><path d="M249.177 48.625c2.158 2.438 3.099 4.947 2.826 7.527-0.274 2.58-1.719 5.029-4.337 7.345v0c-2.838 2.511-5.656 3.754-8.455 3.729-2.795-0.02-5.339-1.326-7.632-3.918v0c-2.139-2.418-3.059-4.938-2.758-7.56 0.3-2.613 1.802-5.116 4.506-7.509v0c2.776-2.457 5.543-3.649 8.301-3.578 2.757 0.071 5.274 1.393 7.549 3.964zM246.853 50.271c-1.564-1.767-3.231-2.639-5.001-2.617-1.771 0.032-3.739 1.007-5.906 2.925v0c-2.331 2.062-3.645 3.983-3.942 5.763-0.298 1.779 0.326 3.543 1.872 5.289v0c1.582 1.788 3.275 2.664 5.08 2.628 1.795-0.036 3.791-1.026 5.989-2.97v0c2.259-1.999 3.532-3.893 3.821-5.683 0.289-1.79-0.349-3.568-1.913-5.335z" fill="#000000" data-fill-palette-color="primary"></path><path d="M272.44 86.783c1.359 3.123 1.561 5.877 0.607 8.262-0.948 2.382-2.984 4.252-6.107 5.61v0c-3.587 1.561-6.734 1.855-9.438 0.884-2.705-0.971-4.79-3.141-6.256-6.509v0c-0.417-0.96-0.893-2.114-1.428-3.462-0.541-1.346-1.039-2.621-1.496-3.825v0l6.215-2.558 14.247-6.344zM253.971 94.427c0.952 2.189 2.349 3.591 4.191 4.207 1.848 0.613 4.114 0.336 6.799-0.832v0c2.634-1.146 4.337-2.555 5.109-4.226 0.772-1.671 0.664-3.642-0.323-5.912v0c-0.584-1.342-1.327-2.895-2.228-4.658v0l-11.501 4.914-3.841 1.715c0.29 0.821 0.597 1.68 0.92 2.576 0.332 0.9 0.623 1.638 0.874 2.216z" fill="#000000" data-fill-palette-color="primary"></path><path d="M10.007 140.633c0-1.818 1.474-3.292 3.292-3.292 1.818 0 3.292 1.474 3.292 3.292 0 1.818-1.474 3.292-3.292 3.292-1.818 0-3.292-1.474-3.292-3.292z" fill="#000000" data-fill-palette-color="primary"></path><path d="M268.551 140.633c0-1.818 1.474-3.292 3.292-3.292 1.818 0 3.292 1.474 3.292 3.292 0 1.818-1.474 3.292-3.292 3.292-1.818 0-3.292-1.474-3.292-3.292z" fill="#000000" data-fill-palette-color="primary"></path></g><g id="text-1"><path d="M39.292 182.605l-23.681 18.879-1.262-3.449 2.465-1.623 4.071-3.205-2.092-6.106-2.127-5.427-5.064-0.015-3.105 0.382-1.234-3.372 30.598 0.024zM21.548 186.421l1.86 4.814 11.693-9.248-0.106-0.289-15.084-0.02z" fill="#000000" data-fill-palette-color="primary"></path><path d="M41.676 225.475c-1.113 3.132-2.075 6.389-2.886 9.773v0l-0.385 0.239c-1.07-0.768-1.873-1.456-2.409-2.062v0l-0.06-0.675c1.374-3.887 2.493-6.89 3.358-9.011v0l-2.57-3.33-0.9 0.681-5.523 4.28-1.999-2.643 5.44-3.947 12.356-9.515 4.64 6.048c1.424 1.882 2.075 3.662 1.955 5.339-0.116 1.683-1.006 3.154-2.67 4.413v0c-1.216 0.92-2.549 1.414-3.999 1.481-1.45 0.068-2.899-0.29-4.348-1.071zM45.954 213.529l-6.996 5.241 2.437 3.444c2.201 1.663 4.3 1.739 6.297 0.228v0c1.053-0.796 1.608-1.701 1.665-2.713 0.053-1.018-0.372-2.176-1.277-3.473v0z" fill="#000000" data-fill-palette-color="primary"></path><path d="M80.439 242.031l-0.018 0.318-1.854 2.138-3.166-2.725-1.801-1.326-7.552 10.034-4.035 5.706-2.71-1.995 4.091-5.333 7.529-10.383-1.802-1.326-3.617-2.268-0.026-0.414 1.857-2.072z" fill="#000000" data-fill-palette-color="primary"></path><path d="M104.236 252.789l-0.546 23.645-3.148-1.188 0.356-2.454 0.075-3.513-4.967-1.919-4.459-1.639-2.241 2.51-1.511 2.204-3.101-1.17 15.933-17.838zM97.19 264.978l3.877 1.408 0.247-11.201-0.25-0.095-7.551 8.445z" fill="#000000" data-fill-palette-color="primary"></path><path d="M180.237 253.717l-4.336 23.425-3.527 0.622-6.442-11.24-0.263 0.047-2.428 12.805-3.536 0.624-11.072-20.705 3.314-0.585 0.806 2.264 8.204 15.023 0.222-0.039 2.543-13.69-2.773-5.147 3.445-0.608 0.944 2.511 8.157 14.761 0.263-0.047 3.164-16.842 0.092-2.61z" fill="#000000" data-fill-palette-color="primary"></path><path d="M203.514 241.821c2.816-1.633 5.462-2.061 7.937-1.283 2.475 0.778 4.59 2.679 6.343 5.703v0c1.901 3.278 2.562 6.286 1.985 9.025-0.572 2.735-2.355 4.971-5.35 6.707v0c-2.793 1.62-5.445 2.023-7.956 1.21-2.502-0.81-4.659-2.778-6.47-5.901v0c-1.86-3.207-2.482-6.155-1.867-8.844 0.615-2.689 2.407-4.895 5.378-6.617zM204.668 244.425c-2.041 1.184-3.226 2.645-3.553 4.384-0.318 1.742 0.249 3.864 1.7 6.368v0c1.561 2.692 3.185 4.36 4.87 5.003 1.686 0.643 3.537 0.38 5.555-0.79v0c2.065-1.197 3.258-2.684 3.58-4.46 0.32-1.767-0.257-3.919-1.728-6.458v0c-1.513-2.609-3.118-4.232-4.816-4.868-1.697-0.636-3.567-0.363-5.608 0.821z" fill="#000000" data-fill-palette-color="primary"></path><path d="M232.054 217.489c2.158-2.438 4.534-3.678 7.129-3.721 2.595-0.042 5.2 1.095 7.818 3.412v0c2.838 2.511 4.414 5.157 4.729 7.938 0.32 2.776-0.667 5.46-2.961 8.052v0c-2.139 2.418-4.529 3.637-7.169 3.658-2.63 0.02-5.297-1.167-8.001-3.56v0c-2.776-2.457-4.296-5.058-4.561-7.804-0.264-2.746 0.741-5.404 3.016-7.975zM233.971 219.596c-1.564 1.767-2.227 3.528-1.989 5.281 0.248 1.753 1.455 3.589 3.621 5.507v0c2.331 2.062 4.397 3.133 6.2 3.212 1.802 0.079 3.477-0.755 5.022-2.502v0c1.582-1.788 2.246-3.575 1.991-5.362-0.254-1.777-1.479-3.638-3.677-5.582v0c-2.259-1.999-4.294-3.033-6.105-3.102-1.812-0.069-3.499 0.78-5.063 2.548z" fill="#000000" data-fill-palette-color="primary"></path><path d="M251.643 185.435c1.359-3.123 3.236-5.149 5.631-6.076 2.389-0.93 5.145-0.716 8.268 0.643v0c3.587 1.561 5.948 3.662 7.081 6.303 1.133 2.641 0.967 5.646-0.498 9.014v0c-0.417 0.96-0.937 2.095-1.559 3.405-0.616 1.313-1.209 2.547-1.779 3.702v0l-6.109-2.803-14.352-6.099zM269.826 193.737c0.952-2.189 1.026-4.167 0.221-5.934-0.811-1.77-2.559-3.239-5.243-4.407v0c-2.634-1.146-4.826-1.432-6.575-0.858-1.749 0.574-3.117 1.997-4.105 4.267v0c-0.584 1.342-1.214 2.944-1.889 4.806v0l11.435 5.064 3.873 1.641c0.403-0.772 0.822-1.582 1.258-2.429 0.432-0.856 0.774-1.573 1.025-2.15z" fill="#000000" data-fill-palette-color="primary"></path></g></svg></g></svg></g></svg></g><g></g></svg></g><defs></defs></svg><rect width="280" height="280" fill="none" stroke="none" visibility="hidden"></rect></g></svg></g></svg>